# Blender v3.3.1 OBJ File: 'simple_tetrahedron.blend'
# www.blender.org
mtllib simple_tet.mtl
o Cube_Cube.001
v -1.000000 1.370820 1.000000
v -1.000000 3.370820 -1.000000
v 1.000000 3.370820 1.000000
v 1.000000 1.370820 -1.000000
vt 0.375000 0.500000
vt 0.375000 0.000000
vt 0.625000 0.250000
vt 0.875000 0.500000
vt 0.625000 0.750000
vt 0.375000 1.000000
vt 0.125000 0.750000
vn -0.5774 -0.5774 -0.5774
vn 0.5774 0.5774 -0.5774
vn -0.5774 0.5774 0.5774
vn 0.5774 -0.5774 0.5774
usemtl None
s off
f 4/1/1 1/2/1 2/3/1
f 2/4/2 3/5/2 4/1/2
f 2/3/3 1/6/3 3/5/3
f 1/7/4 4/1/4 3/5/4
